{"title":"Attack on Titan - S01E16 1080p .MP4","uid":8810765,"size":805886415,"categoryP":"video","categoryS":"hd___tv_shows","magnet":"?xt=urn:btih:9a4cb1cc95fb85921d6e93455ca849bbf966991a&amp;dn=Attack+on+Titan+-+S01E16+1080p+.MP4&amp;tr=udp%3A%2F%2Ftracker.openbittorrent.com%3A80&amp;tr=udp%3A%2F%2Fopen.demonii.com%3A1337&amp;tr=udp%3A%2F%2Ftracker.coppersurfer.tk%3A6969&amp;tr=udp%3A%2F%2Fexodus.desync.com%3A6969","seeders":1,"leechers":0,"uploader":"Danimal1q2w3","files":1,"time":1376452775,"description":"source:\n &lt;a href=&quot;\nhttp://thepiratebay.se/torrent/8748083/Attack_on_Titan_S01E16_What_Should_Be_Done_%281920x1080%29_%5BPhr0stY%5D&quot; rel=&quot;nofollow&quot; target=&quot;_NEW&quot;&gt;\nhttp://thepiratebay.se/torrent/8748083/Attack_on_Titan_S01E16_What_Should_Be_Done_%281920x1080%29_%5BPhr0stY%5D&lt;/a&gt;\n\nVideo\nID                                       : 1\nFormat                                   : AVC\nFormat/Info                              : Advanced Video Codec\nFormat profile                           : &lt;a class=&quot;__cf_email__&quot; href=&quot;/cdn-cgi/l/email-protection&quot; data-cfemail=&quot;31735042545d585f54717d001f02&quot;&gt;[email&amp;#160;protected]&lt;/a&gt;&lt;script cf-hash='f9e31' type=&quot;text/javascript&quot;&gt;\n/* &lt;![CDATA[ */!function(){try{var t=&quot;currentScript&quot;in document?document.currentScript:function(){for(var t=document.getElementsByTagName(&quot;script&quot;),e=t.length;e--;)if(t[e].getAttribute(&quot;cf-hash&quot;))return t[e]}();if(t&amp;&amp;t.previousSibling){var e,r,n,i,c=t.previousSibling,a=c.getAttribute(&quot;data-cfemail&quot;);if(a){for(e=&quot;&quot;,r=parseInt(a.substr(0,2),16),n=2;a.length-n;n+=2)i=parseInt(a.substr(n,2),16)^r,e+=String.fromCharCode(i);e=document.createTextNode(e),c.parentNode.replaceChild(e,c)}}}catch(u){}}();/* ]]&gt; */&lt;/script&gt;\nFormat settings, CABAC                   : No\nFormat settings, ReFrames                : 2 frames\nFormat settings, GOP                     : N=1\nCodec ID                                 : avc1\nCodec ID/Info                            : Advanced Video Coding\nDuration                                 : 24mn 7s\nBit rate mode                            : Variable\nBit rate                                 : 4 202 Kbps\nWidth                                    : 1 920 pixels\nHeight                                   : 1 088 pixels\nOriginal height                          : 1 080 pixels\nDisplay aspect ratio                     : 16:9\nOriginal display aspect ratio            : 16:9\nFrame rate mode                          : Variable\nFrame rate                               : 23.976 fps\nMinimum frame rate                       : 23.974 fps\nMaximum frame rate                       : 23.981 fps\nColor space                              : YUV\nChroma subsampling                       : 4:2:0\nBit depth                                : 8 bits\nScan type                                : Progressive\nBits/(Pixel*Frame)                       : 0.084\nStream size                              : 725 MiB (94%)\nLanguage                                 : English\nEncoded date                             : UTC 2013-08-13 17:37:15\nTagged date                              : UTC 2013-08-13 17:37:23\n\nAudio\nID                                       : 2\nFormat                                   : AAC\nFormat/Info                              : Advanced Audio Codec\nFormat profile                           : LC\nCodec ID                                 : 40\nDuration                                 : 24mn 7s\nBit rate mode                            : Variable\nBit rate                                 : 251 Kbps\nMaximum bit rate                         : 305 Kbps\nChannel(s)                               : 2 channels\nChannel positions                        : Front: L R\nSampling rate                            : 48.0 KHz\nCompression mode                         : Lossy\nStream size                              : 43.2 MiB (6%)\nLanguage                                 : English\nEncoded date                             : UTC 2013-08-13 17:37:24\nTagged date                              : UTC 2013-08-13 17:37:24\n","torrent":{"xt":"urn:btih:9a4cb1cc95fb85921d6e93455ca849bbf966991a","amp;dn":"Attack+on+Titan+-+S01E16+1080p+.MP4","amp;tr":["udp%3A%2F%2Ftracker.openbittorrent.com%3A80","udp%3A%2F%2Fopen.demonii.com%3A1337","udp%3A%2F%2Ftracker.coppersurfer.tk%3A6969","udp%3A%2F%2Fexodus.desync.com%3A6969"],"infoHash":"9a4cb1cc95fb85921d6e93455ca849bbf966991a","infoHashBuffer":{"type":"Buffer","data":[154,76,177,204,149,251,133,146,29,110,147,69,92,168,73,187,249,102,153,26]},"announce":[],"urlList":[]}}